<svg xmlns="http://www.w3.org/2000/svg" xml:space="preserve" width="202" height="100" viewBox="0 0 201.8 100">
  <style>
    .st0{fill:#fff}.st1{fill:#00ff84}
  </style>
  <path d="M58.6 53.4 47.9 38.1v15.3H36.8V18.2h11.1v14.9l11-14.8H72L58.5 34.9l13.7 18.5H58.6z" class="st0"/>
  <ellipse cx="195.3" cy="93.3" class="st1" rx="6.5" ry="6.4"/>
  <ellipse cx="82.2" cy="6.4" class="st1" rx="6.5" ry="6.4"/>
  <path d="M76.7 18.2h11.1v35.2H76.7z" class="st0"/>
  <path d="M76.5 81.5C76.5 71 83 63 93.2 63c5.1 0 9.1 2.4 11 6v-5h11.1v35h-11.1v-5c-1.9 3.5-6.3 5.9-11.1 5.9-10.6.1-16.6-7.9-16.6-18.4zm28.1 0c0-5-2.9-9.2-8.4-9.2-5.2 0-8.4 3.9-8.4 9.2 0 5.3 3.2 9.3 8.4 9.3 5.6-.1 8.4-4.2 8.4-9.3z" class="st0"/>
  <path d="M121.8 63.9H133v7.4c1.2-5.2 5.4-7.9 9.7-7.9 1.3 0 2 .1 2.9.3l-.1 10.4c-1.3-.2-1.9-.2-3.3-.2-6.1 0-9.3 3.9-9.3 11.7V99h-11.1V63.9z" class="st0"/>
  <path d="M147.8 81.5c0-11.5 7.5-18.5 19-18.5 10.9 0 18.4 6.8 18.4 16.7 0 1.8-.1 2.9-.3 4.9h-26c.2 4.6 3.3 7.1 8.2 7.1 3.4 0 5.6-1 6.6-3.1h10.9c-1.1 6.9-8.2 11.5-17.5 11.5-11.9-.1-19.3-6.9-19.3-18.6zm26.4-3.9c-.1-4.7-2.7-7.1-7.4-7.1-4.8 0-7.7 2.9-7.8 7.1h15.2z" class="st0"/>
  <path d="M105.4 42.9V18.2H94.2v35.2h27.1V42.9z" class="st0"/>
  <path d="M138.5 42.9V18.2h-11.2v35.2h27.1V42.9z" class="st0"/>
  <path d="M61.1 63.9v12.6H47.8V63.9h-11v35.2h11V86.6h13.3v12.5H72V63.9z" class="st0"/>
  <path d="m23 78.1-6.8-1.9c-2.3-.7-3.1-1.7-3.1-3.1 0-1.6 1.2-2.5 2.8-2.7 2.3-.3 4.1.7 4.1 3.2v.2h11.7v-.2c0-7-5.9-10.9-15.8-10.9-9 0-15 4.4-15 11C.9 79 4.1 82.6 9.7 84l7 1.8c2.1.7 2.9 1.7 2.9 3.3 0 1.7-1.8 2.7-3.6 2.8-2.6.1-4.5-1.3-4.6-3.5H0C.2 95.2 6.7 100 16.6 100c9.3 0 15.4-4.3 15.4-11.6-.1-5.4-3.4-8.8-9-10.3z" class="st0"/>
  <path d="m23 32.5-6.8-1.9c-2.3-.7-3.1-1.7-3.1-3.1 0-1.6 1.2-2.5 2.8-2.7 2.3-.3 4.1.7 4.1 3.2v.2h11.7V28c0-7-5.9-10.9-15.8-10.9-9 0-15 4.4-15 11 0 5.3 3.2 8.9 8.8 10.3l7 1.8c2.1.7 2.9 1.7 2.9 3.3 0 1.7-1.8 2.7-3.6 2.8-2.6.1-4.5-1.3-4.6-3.5H0c.2 6.7 6.7 11.4 16.6 11.4C25.9 54.3 32 50 32 42.7c-.1-5.3-3.4-8.7-9-10.2z" class="st0"/>
</svg>
