<svg xmlns="http://www.w3.org/2000/svg" xml:space="preserve" width="400" height="100" viewBox="0 0 400.8 100">
  <style>
    .st0{fill:#fdfdfd}
  </style>
  <path d="M54.4 41.9c0-15 3.2-24.2 12.7-24.2 7.9 0 14 5.8 19.9 16.5l3-21.6c-2.7-1.2-8-2.6-14.2-2.6-22-.1-35.7 17.5-35.7 40.6C40.1 76.5 54.4 90 69.8 90c11 0 19.6-7.1 20.9-17-3.5 2.1-7.1 3.9-12.2 3.9-13.5 0-24.1-11.9-24.1-35z" class="st0"/>
  <path d="M116.6 27.5c-15.2 0-25.4 12.1-25.4 31.3 0 18.6 10.2 30.9 24.4 30.9 15.2 0 25.4-12.1 25.4-31.2 0-18.8-10.3-31-24.4-31zm.6 56.8c-7.1 0-10.3-15-10.3-30.5 0-13.1 2.3-21 8-21 7.1 0 10.3 15.2 10.3 30.6 0 13.4-2.3 20.9-8 20.9z" class="st0"/>
  <path d="M190.3 44.4c0-11.1-4.9-16.7-12.9-16.7-6.5 0-12.7 3.5-16.6 10.9-.1-3.6-1.3-8.3-2.6-11.1-4.7 2.4-9.8 4.6-14.8 6.7 2.6 5.3 2.7 10.2 2.7 16.8v20c0 6.6-.2 11-2.7 17.3h20.1c-2.6-6.3-2.7-10.6-2.7-17.3V42c3-3.6 6-4.6 8.4-4.6 4.4 0 6.4 2.6 6.4 9.2v22.2c0 7.3.4 14.2 1.6 19.4h16.3c-2.4-6.9-3.2-12.1-3.2-19.7V44.4z" class="st0"/>
  <path d="m228.1 32.9.6-4.2h-13.6V11.6c-4.9 3-9.9 5.6-15.3 7.6.4 4 .5 7 .6 9.6h-6.1l-.6 4.2h6.7v40.5c0 11.5 5.3 16.2 12.5 16.2 8.8 0 15.4-6.9 15.4-14.8-2.5 1.9-4.7 3.1-7.3 3.1-5.9 0-5.9-6.5-5.9-9.4V32.9h13z" class="st0"/>
  <path d="M262.4 76.9c-12.7 0-17.3-7.1-18.3-18.3h31.1V50c0-12.1-6.1-22.3-20.3-22.3-16.9 0-25.4 14.4-25.4 31.6 0 18.3 10.3 30.6 25.1 30.6 12.8 0 19.2-9 20.3-16.5-3.7 2.2-7.2 3.5-12.5 3.5zm-18.5-24.5c0-13.5 3.5-19.6 8.7-19.6 4.6 0 7.7 4.9 7.7 17.3 0 4.5-.6 5-4.3 5h-12.2v-2.7z" class="st0"/>
  <path d="M347.1 68.4V32.9h13l.6-4.2h-13.6V11.6c-4.9 3-9.9 5.6-15.3 7.6.4 4 .5 7 .6 9.6H310.1c.7 1.1 1.4 2.9 1.4 5.1 0 1.9-.5 4-1.7 6.3L304 51.3l-5.7-12.4c-1-2.3-1.3-4.4-1.3-6.3 0-1.7.4-3 .8-3.9h-24.6c2.7 3.1 4.5 5.3 7.4 10.5l11.5 20.4-10.6 17c-2.9 4.7-5.4 8.3-8.5 11.5h14.7c-.7-1.2-1.3-3-1.3-5.1 0-1.6.4-3.3 1.2-5.1l6.9-13.6 6.5 13.6c.8 1.7 1.2 3.6 1.2 5.2 0 2-.5 3.9-1.3 5H326c-3.1-2.5-5-5.7-7.7-10.5l-11.9-21.5 10-16c1.8-2.8 3.3-5.3 4.9-7.4v.1h11.2v40.5c0 11.5 5.3 16.2 12.5 16.2 8.8 0 15.4-6.9 15.4-14.8-2.5 1.9-4.7 3.1-7.3 3.1-6 .1-6-6.5-6-9.4z" class="st0"/>
</svg>
