<svg xmlns="http://www.w3.org/2000/svg" xml:space="preserve" width="233" height="100" viewBox="0 0 233.4 100">
  <style>
    .st0{fill:#fff}
  </style>
  <path d="M29 97.6c-.6.4-.8 1.1-.5 1.7.4.6 1.1.8 1.7.5L29 97.6zm4.9-10.4 1.1-.7-1.1.7zm10.6-15.5-1.3-.3v.2l1.3.1zm3.8-21.8c-.5-.5-1.3-.4-1.8.1l-7.7 8.5c-.5.5-.4 1.3.1 1.8s1.3.4 1.8-.1l6.8-7.6 7.6 6.8c.5.5 1.3.4 1.8-.1s.4-1.3-.1-1.8l-8.5-7.6zm-18 49.9c1.6-.9 3.7-2.6 5-4.9 1.3-2.3 1.8-5.3-.2-8.5l-2.2 1.4c1.4 2.2 1.1 4.2.2 5.9-1 1.8-2.7 3.2-4 3.9l1.2 2.2zM35 86.5c-2.2-3.4-4.2-5.5-6.4-6.5-2.3-1.1-4.6-1-7.3-.7l.3 2.6c2.5-.3 4.3-.3 5.9.5 1.6.8 3.3 2.3 5.3 5.6l2.2-1.5zm-13.7-7.3c-.7.1-1.3.2-2 .3s-1.3.2-1.9.2c-1.2.1-2.3.2-3.1.1-.9-.1-1.4-.4-1.7-.7-.3-.4-.6-1-.6-2.2H9.5c0 1.6.4 3 1.3 3.9.9 1 2.1 1.4 3.2 1.5s2.5.1 3.7-.1c.6-.1 1.3-.1 1.9-.2s1.3-.2 1.9-.3l-.2-2.5zm-9.2-2.4c0-1.4.2-2.9.4-4.7.2-1.7.5-3.5.6-5.3.2-1.8.3-3.5.1-5.1-.1-1.6-.5-3.1-1.4-4.3L9.7 59c.5.6.8 1.6.9 3 .1 1.4 0 2.9-.1 4.6-.2 1.7-.4 3.5-.6 5.2-.2 1.7-.4 3.4-.4 5h2.6zm-.3-19.3c-1.4-1.9-2.5-2.8-3.8-3.3-.6-.2-1.1-.3-1.6-.3s-.9-.1-1.4-.2l-.6 2.5c.7.2 1.3.2 1.8.3.5.1.8.1 1.1.2.5.2 1.2.6 2.6 2.4l1.9-1.6zM5 53.7c-1.1-.3-1.9-.7-2.3-1.2-.2-.4-.5-1.2.6-2.9l-2.2-1.4c-1.4 2.2-1.6 4.1-.6 5.7.9 1.4 2.5 2 3.8 2.3l.7-2.5zm-1.7-4.2c.6-.9 1.5-2.3 2.7-3.8 1.1-1.6 2.4-3.3 3.7-5.1 1.2-1.8 2.4-3.6 3.3-5.3.9-1.6 1.5-3.3 1.5-4.7h-2.6c0 .7-.4 1.9-1.2 3.5-.8 1.5-1.9 3.3-3.1 5s-2.5 3.5-3.6 5c-1.1 1.6-2.1 3-2.8 4l2.1 1.4zm11.2-18.9c0-4.2 1.2-16 11.8-22L25 6.4c-11.9 6.8-13.1 19.9-13.1 24.2h2.6zm11.8-22c5.4-3.1 13.4-5.3 21.1-5.9 3.8-.3 7.5-.2 10.7.4 3.2.6 5.9 1.7 7.7 3.2l1.7-1.9c-2.3-1.9-5.4-3.1-8.9-3.8-3.4-.6-7.4-.7-11.4-.4-8 .6-16.4 2.9-22.2 6.3l1.3 2.1zm39.6-2.3c4.2 3.6 9 7 12.7 11.3 3.6 4.2 6 8.9 5.4 15l2.6.2c.6-7-2.1-12.4-6-16.9-3.8-4.4-9-8.1-12.9-11.5l-1.8 1.9zM84 32.6c-.6 6.5-1.6 13-3.1 18.5-1.6 5.5-3.6 9.7-6.1 11.7l1.6 2c3.2-2.6 5.4-7.4 7-13 1.6-5.7 2.6-12.4 3.2-18.9l-2.6-.3zm-9.3 30.1c-6.4 5-6.5 12.8-4.4 21.1l2.5-.6c-2.1-8.1-1.6-14.4 3.5-18.4l-1.6-2.1zm-4.4 21.2c.5 2 .7 3.5.7 4.7 0 1.1-.3 1.8-.6 2.2s-.8.7-1.6.9c-.9.2-2 .2-3.5 0l-.3 2.6c1.6.1 3 .2 4.3-.1 1.3-.3 2.4-.8 3.2-1.8.8-1 1.1-2.3 1.1-3.8s-.3-3.3-.8-5.4l-2.5.7zm-5 7.8c-1.6-.2-3.3-.1-4.8-.1-1.6.1-3 .1-4.3.1-1.3-.1-2.3-.2-3-.6-.6-.4-1.1-.9-1.4-1.8l-2.4.7c.5 1.6 1.4 2.7 2.7 3.4 1.2.6 2.6.9 4.1.9 1.4.1 3 0 4.5-.1s3-.1 4.5.1l.1-2.6zm-13.5-2.4c-.7-2.4-.9-5.6.1-8.2.5-1.3 1.2-2.4 2.3-3.2s2.6-1.4 4.7-1.6l-.2-2.6c-2.5.2-4.5.9-6 2.1-1.5 1.2-2.6 2.7-3.2 4.3-1.2 3.3-1 7-.1 9.8l2.4-.6zm7.1-13c.9-.1 1.6.1 2.1.4.5.3.9.6 1.1 1.2.5 1.1.6 2.7 0 4.5-1.1 3.6-4.3 6.7-8.6 6.1l-.4 2.5c6 .9 10.1-3.6 11.5-7.8.7-2.1.7-4.5-.2-6.3-.5-.9-1.2-1.8-2.2-2.3-1-.5-2.2-.8-3.5-.7l.2 2.4zm-5.4 12c-2.3-.3-3.9-1.3-5-2.6s-1.9-3-2.3-4.8c-.9-3.6-.5-7.5-.4-9.2l-2.6-.2c-.1 1.7-.6 6 .4 10.1.5 2.1 1.4 4.2 2.9 5.9 1.5 1.7 3.7 3 6.5 3.4l.5-2.6zm-7.7-16.4c.6-2.5 1.4-6.6 2-10.6.6-4 1.1-8.1 1-10.5l-2.6.1c.1 2.1-.3 6-1 10-.6 4-1.4 8-2 10.5l2.6.5z" class="st0"/>
  <path fill="none" stroke="#fff" stroke-linecap="round" stroke-width="2.5588" d="M25.7 40.3c4.3 3.3 13.1 0 18.8 0 7.6 0 27.9 4.9 31-4.6 1.2-3.6-2.1-6.2-4-7 .4-2.1.7-7.2-1.5-10.3-2.2-3.2-5.8-3.3-7.3-3.1-.1-2.6-1.7-8.2-7.3-9.1S45 9.3 43.3 11.5c-.7-.7-3.3-1.9-7.9-.9s-5.8 5.7-5.8 7.9c-1.3 0-4.3.8-5.5 4-1.5 4 1.5 7 0 8.2-1.5 1.2-2.7 6.3 1.6 9.6z"/>
  <path d="M102.3 38.5c-.4 0-.8-.1-1.3-.4-.5-.3-.7-.7-.7-1.2s.1-1 .4-1.4c.3-.4.6-.8 1.1-1.1.4-.3 1-.5 1.5-.7 1.1-.4 2.2-.5 3.5-.5 2.1 0 3.6.5 4.5 1.4s1.4 2.4 1.4 4.6v4.6c0 1.1.1 1.8.4 2.1.1.1.3.2.7.3 1.1.3 1.6.6 1.6.8 0 1.1-1.1 1.6-3.3 1.6-.8 0-1.4-.2-1.6-.6-.2-.4-.4-1.1-.4-2-.5.8-1.2 1.5-2.1 2-.9.5-2 .8-3 .8-1.1 0-2-.1-2.7-.4-.8-.3-1.4-.7-1.8-1.4-.5-.6-.7-1.3-.7-2s.1-1.3.2-1.7c.2-.4.4-.8.6-1.1.2-.3.6-.6 1-.8l1.2-.6c.4-.1.9-.3 1.4-.4.9-.2 1.6-.3 2.2-.4.6-.1.9-.1.9-.1.1 0 .4-.1 1.1-.1.6-.1 1.1-.2 1.5-.4 0-1.9-.3-3.2-.8-3.8-.5-.5-1.2-.8-2.3-.8s-1.8.3-2.4.8c-.5.5-.8 1.4-.8 2.6v.4c-.5-.1-.9-.1-1.3-.1zm7.5 2.2c-.7.3-1.5.4-2.4.5-.9.1-1.6.2-2.1.4-.5.1-.9.3-1.3.5-.8.4-1.2 1.2-1.2 2.3 0 1.8 1 2.6 3.1 2.6 1.8 0 2.9-.9 3.4-2.6.3-.9.5-2.1.5-3.7zm11.6 7.6h-1.3c-1.4 0-2.2-.2-2.5-.6-.1-.2-.2-.4-.2-.7 0-.3.1-.4.3-.6.2-.1.4-.1.7-.2.2 0 .5-.1.7-.2s.3-.4.3-.7V29c0-.9-.4-1.4-1.1-1.5h-.7c-.1 0-.1 0-.2-.1l-.1-.1c-.1-.1-.1-.2-.1-.4s.1-.5.5-.7c.6-.5 1.4-.7 2.3-.7 1 0 1.6.1 1.8.2.4.2.5.6.5 1v18.7c0 .6.3.9 1 1 .7 0 1 .3 1 .8 0 .6-.3.9-.9 1.1-.5-.1-1.1 0-2 0zm9.3 0h-1.3c-1.4 0-2.2-.2-2.5-.6-.1-.2-.2-.4-.2-.7 0-.3.1-.4.3-.6.2-.1.4-.1.7-.2.2 0 .5-.1.7-.2.2-.1.3-.4.3-.7V29c0-.9-.4-1.4-1.1-1.5h-.7c-.1 0-.1 0-.2-.1l-.1-.1c-.1-.1-.1-.2-.1-.4s.1-.5.5-.7c.6-.5 1.4-.7 2.3-.7 1 0 1.6.1 1.8.2.4.2.5.6.5 1v18.7c0 .6.3.9 1 1 .7 0 1 .3 1 .8 0 .6-.3.9-.9 1.1-.5-.1-1.1 0-2 0zm11.8-12.8h-.9c-.4 0-.6 0-.8-.1-.2-.1-.3-.2-.3-.4s.1-.4.3-.6.4-.4.7-.4c.7-.3 1.1-.5 1.3-.7.1-.2.4-.6.6-1.3.7-1.7 1.3-2.6 1.7-2.6.2 0 .4.3.4.8s.1.9.1 1.1v2.3h3.7c.4 0 .7.1.9.3.2.2.4.4.4.7 0 .3-.1.5-.4.7-.2.2-.5.2-.9.2h-3.7v7.9c0 2.2.6 3.3 1.7 3.3.3 0 .8-.1 1.4-.3.6-.2 1-.3 1.2-.3.4 0 .6.2.6.7 0 .4-.5.8-1.5 1.1-1 .4-2 .6-3.1.6-1 0-1.8-.4-2.4-1.2-.6-.8-.9-1.9-.9-3.2l-.1-8.6zm11.9 11.1c-1.4-1.4-2.1-3.3-2.1-5.5 0-2.3.7-4.2 2.1-5.6 1.4-1.4 3.3-2.2 5.5-2.2 1.8 0 3.2.6 4.4 1.7 1.2 1.1 1.8 2.6 1.8 4.3 0 .8-.6 1.3-2 1.3h-8.9c0 1.7.6 3.1 1.6 4.2 1.1 1.1 2.4 1.7 4 1.7 1.1 0 2.1-.3 3.1-.9.5-.3.9-.5 1-.5.1 0 .3.1.5.2s.3.3.3.5c0 .6-.4 1.1-1.1 1.6-.7.5-1.5.8-2.4 1.1-.9.2-1.6.4-2.3.4-2.2-.2-4-.9-5.5-2.3zm9-7.8c0-1.2-.3-2.1-.9-2.9s-1.5-1.1-2.6-1.1-2.1.4-3 1.2c-.9.8-1.3 1.8-1.4 2.8h3.6c1.6.1 3 .1 4.3 0zm18 6.5c.5 0 .7.2.7.6 0 .2-.1.4-.2.6-1.4 1.5-3.3 2.2-5.9 2.2s-4.6-.7-6.1-2.1c-1.5-1.4-2.2-3.2-2.2-5.5 0-1.5.4-2.8 1.1-4.1s1.7-2.1 3-2.8c1.3-.7 2.6-1 4.2-1 2.1 0 3.8.6 4.9 1.6.6.6.9 1.3.9 2.1 0 .5-.2.9-.6 1.2-.4.3-.9.5-1.4.5s-.9-.1-1.1-.1c-.1-1.2-.3-2.1-.7-2.7s-1.1-.9-2-.9c-1.6 0-2.8.5-3.7 1.5-.9 1-1.3 2.3-1.3 4s.6 3.1 1.7 4.4c1.1 1.2 2.6 1.9 4.3 1.9 1 0 2.3-.4 3.8-1.1.1-.3.3-.3.6-.3zm17.9 3H198c-1.4 0-2.2-.2-2.5-.6-.1-.2-.2-.4-.2-.7 0-.3.1-.4.3-.6.2-.1.4-.1.7-.2.3 0 .5-.1.7-.2s.3-.4.3-.7v-4.5c0-1.9-.2-3.3-.7-4.2-.5-1-1.5-1.5-3.1-1.5s-2.8.5-3.5 1.6c-.6 1-.9 2.4-.9 4.2v4.4c0 .6.3.9 1 1 .7 0 1 .3 1 .8 0 .6-.3.9-.9 1.1-.4.1-1.1.1-1.9.1H187c-1.4 0-2.2-.2-2.5-.6-.1-.2-.2-.4-.2-.7 0-.3.1-.4.3-.6.2-.1.4-.1.7-.2.3 0 .5-.1.7-.2s.3-.4.3-.7V28.5c0-.6-.4-1-1.1-1.1-.5-.1-.8-.2-.9-.3-.1-.1-.1-.3-.1-.5s.1-.4.3-.6c.2-.2.5-.3.9-.4.6-.2 1.3-.2 2.1-.2 1.3 0 1.9.4 1.9 1.1v9c1.4-1.6 3.2-2.4 5.3-2.4s3.6.6 4.5 1.6c.9 1.1 1.3 2.7 1.3 5v5.5c0 .6.3.9 1 1 .7 0 1 .3 1 .8 0 .6-.3.9-.9 1.1-.9.1-1.5.2-2.3.2zm12.1-19.4c0-.4.2-.9.6-1.3.4-.4.9-.6 1.4-.6.5 0 1 .1 1.5.5.5.3.7.7.7 1.3 0 .5-.2 1-.6 1.3-.4.4-.9.5-1.5.5s-1.1-.2-1.6-.5c-.2-.3-.5-.7-.5-1.2zm3.2 19.4h-1.3c-1.4 0-2.2-.2-2.5-.6-.1-.2-.2-.4-.2-.7 0-.3.1-.4.3-.6.2-.1.4-.1.7-.2.3 0 .5-.1.7-.2s.3-.4.3-.7V37c0-.9-.4-1.4-1.1-1.5h-.7c-.1 0-.1 0-.2-.1l-.1-.1c-.1-.1-.1-.2-.1-.4s.1-.5.5-.8c.6-.5 1.4-.7 2.3-.7.9 0 1.4 0 1.6.1.2.1.3.1.4.2.2.1.3.4.3.8v10.7c0 .6.3.9 1 1 .7 0 1 .3 1 .8 0 .6-.3.9-.9 1.1-.5.1-1.1.2-2 .2zm12.2-1.4c2.3 0 3.5-.7 3.5-2.1 0-1.1-1.1-1.9-3.1-2.5-.4-.1-.9-.2-1.4-.4-1-.3-1.7-.5-2.1-.6-.9-.4-1.7-.9-2.3-1.5-.6-.7-.9-1.5-.9-2.4 0-1.2.6-2.2 1.7-2.9 1.1-.8 2.5-1.2 4.1-1.2 1.6 0 3 .3 4.4.9.7.3 1.2.7 1.6 1.1.4.5.6 1 .6 1.5s-.2 1-.6 1.3c-.4.3-.9.5-1.3.5s-.8 0-.9-.1c-.1-.1-.2-.3-.2-.6 0-2-1.1-3-3.2-3-.9 0-1.6.2-2.3.6-.6.4-1 .9-1 1.5 0 1 1 1.7 3 2.3.3.1.7.2 1.1.3.4.1.9.2 1.3.4s.8.3 1.2.4c.4.1.9.4 1.3.6.5.3.9.5 1.1.8.7.7 1 1.5 1 2.5s-.3 1.8-1 2.5c-1.3 1.4-3.1 2.1-5.5 2.1-1.6 0-3-.3-4.3-.8-.7-.3-1.2-.6-1.6-1.1-.4-.5-.6-1-.6-1.5s.2-.9.5-1.2c.4-.3.7-.4 1.1-.4.4 0 .8.1 1.1.4.3.3.5.6.5 1s0 .8-.1 1.3c.9.1 2 .3 3.3.3z" class="st0"/>
  <path d="M109.6 66.7c.2-.2.5-.5.8-.7.4-.3.8-.5 1.3-.7.5-.2 1.1-.4 1.7-.6.7-.1 1.4-.2 2.3-.2 1 0 1.8.1 2.6.4.7.2 1.3.6 1.8 1s.9.9 1.2 1.5.5 1.1.7 1.7c.1.6.3 1.2.3 1.8.1.6.1 1.2.1 1.7v4.2c0 .4.1.7.1.9s.2.4.4.5c.1.1.3.2.5.2.2.1.4.1.5.1s.3.1.4.2c.1.1.1.2.1.4 0 1-.5 1.7-1.6 2.2-1 .4-2.6.7-4.5.7-1 0-1.8-.1-2.6-.1-.7-.1-1.4-.3-1.9-.5s-.9-.5-1.1-.9-.4-.8-.4-1.3c0-.2.1-.3.1-.4.1-.1.2-.1.4-.2.1-.1.3-.1.5-.1.2-.1.3-.1.5-.2s.3-.3.4-.5c.1-.2.1-.5.1-.9v-5.4c0-.6 0-1.1-.1-1.5-.1-.4-.2-.8-.4-1.1-.2-.3-.5-.6-.8-.7-.3-.2-.7-.3-1.2-.3-.3 0-.5 0-.7.1-.2.1-.4.1-.6.3-.2.1-.4.2-.5.3-.1.1-.2.2-.4.3V77c0 .4.1.6.1.9.1.2.2.4.4.5.1.1.3.2.5.2s.3.1.5.1c.1.1.3.1.4.2.1.1.1.2.1.4 0 1-.5 1.7-1.6 2.2-1.1.4-2.6.7-4.6.7-1.9 0-3.4-.2-4.4-.7-1-.4-1.5-1.2-1.5-2.2 0-.2.1-.3.1-.4s.2-.1.4-.2.3-.1.5-.1.3-.1.5-.2l.4-.4c.1-.2.1-.5.1-.9v-15c0-.4-.1-.6-.1-.8-.1-.2-.2-.4-.4-.4-.1-.1-.3-.2-.5-.2-.1 0-.3-.1-.5-.1-.1-.1-.3-.1-.4-.2-.1-.1-.1-.2-.1-.4 0-1 .5-1.7 1.5-2.2s2.5-.7 4.4-.7c1 0 1.7.1 2.3.1.6.1 1 .3 1.3.5s.5.6.6.9c.1.4.1.9.1 1.5l-.1 6.6zm30 3.2c0-.4-.1-.6-.1-.9-.1-.2-.2-.4-.4-.4-.1-.1-.3-.2-.5-.2-.2-.1-.3-.1-.5-.1-.1-.1-.3-.1-.4-.2-.1-.1-.1-.2-.1-.4 0-1 .5-1.7 1.6-2.2 1.1-.4 2.6-.7 4.6-.7.7 0 1.2.1 1.7.2.4.1.8.3 1.1.5.3.2.5.5.7.8.2.3.3.6.4 1 .1.4.1.8.1 1.2v8.4c0 .4.1.6.1.8.1.2.2.4.4.4.1.1.3.2.5.2s.3.1.5.1c.1.1.3.1.4.2.1.1.1.2.1.4 0 1-.5 1.7-1.6 2.2-1 .4-2.5.7-4.4.7-.5 0-.9 0-1.3-.1s-.7-.2-1-.3c-.3-.1-.5-.2-.7-.4s-.4-.3-.5-.5c-.3-.4-.5-.8-.6-1.2-.5.5-1 1-1.6 1.4-.3.2-.6.4-.9.5-.3.1-.7.3-1.1.4-.4.1-.8.2-1.3.3-.5.1-1 .1-1.5.1-1 0-1.8-.1-2.5-.4-.7-.2-1.3-.6-1.8-1s-.9-.9-1.2-1.4-.5-1.1-.7-1.7c-.2-.6-.3-1.2-.4-1.8-.1-.6-.1-1.2-.1-1.7v-4.4c0-.4-.1-.7-.1-.9-.1-.2-.2-.4-.4-.5-.1-.1-.3-.2-.5-.2-.2-.1-.3-.1-.5-.1s-.3-.1-.4-.2c-.1-.1-.1-.2-.1-.4 0-1 .5-1.7 1.6-2.2 1.1-.4 2.6-.7 4.6-.7.9 0 1.6.1 2.1.3s.9.5 1.2.9c.3.4.4.8.5 1.3.1.5.1 1.1.1 1.6v6.6c0 .6 0 1.1.1 1.5.1.4.2.8.4 1.1s.5.5.8.7c.3.1.7.2 1.2.2.3 0 .6-.1.9-.1.3-.1.5-.2.7-.4.2-.2.4-.4.5-.6s.2-.5.2-.8l.1-6.9zm31.6-3.9c.1-.1.4-.2.6-.4.2-.2.6-.4 1.1-.6.5-.2 1.1-.4 1.9-.5.8-.1 1.8-.2 3.1-.2.9 0 1.7.1 2.4.3.7.2 1.3.5 1.8.9s.9.8 1.2 1.4c.3.5.6 1.1.8 1.7.2.6.3 1.2.4 1.9.1.6.1 1.3.1 1.9v4.5c0 .4.1.7.1.9.1.2.2.4.4.5.1.1.3.2.5.2s.4.1.5.1c.1.1.3.1.4.2.1.1.1.2.1.4 0 .5-.1.9-.4 1.3-.2.4-.6.6-1.1.9s-1.1.4-1.8.5c-.7.1-1.5.1-2.5.1-.9 0-1.7-.1-2.4-.1-.7-.1-1.3-.3-1.8-.5s-.9-.5-1.1-.9c-.2-.4-.4-.8-.4-1.3 0-.2 0-.3.1-.4.1-.1.1-.1.3-.2.1-.1.2-.1.3-.1.1 0 .2-.1.3-.2.1-.1.2-.3.2-.4.1-.2.1-.5.1-.9v-5.7c0-.5 0-1-.1-1.4-.1-.4-.2-.8-.3-1.1-.1-.3-.4-.5-.6-.7-.2-.1-.6-.2-.9-.2-.6 0-1 .2-1.3.6-.3.4-.4.9-.4 1.4v7c0 .4 0 .7.1.9.1.2.1.4.3.5.1.1.2.2.4.2.1.1.3.1.4.1.1.1.2.1.3.2.1.1.1.2.1.4 0 .5-.1.9-.3 1.3-.2.4-.5.6-.9.9-.4.2-1 .4-1.6.5-.6.1-1.4.1-2.4.1-.9 0-1.7-.1-2.4-.1-.7-.1-1.3-.3-1.8-.5s-.9-.5-1.1-.9c-.2-.4-.4-.8-.4-1.3 0-.2 0-.3.1-.4.1-.1.1-.1.3-.2.1-.1.2-.1.3-.1.1 0 .2-.1.3-.2.1-.1.2-.3.2-.4.1-.2.1-.5.1-.9v-5.7c0-1.1-.1-1.9-.4-2.5-.3-.6-.7-.9-1.4-.9-.3 0-.5.1-.8.1-.2.1-.4.2-.6.4-.2.2-.3.4-.4.6-.1.2-.1.5-.1.8v7.1c0 .4 0 .6.1.9.1.2.2.4.3.5.1.1.2.2.4.2.1 0 .3.1.4.1.1.1.2.1.3.2.1.1.1.2.1.4 0 1-.5 1.7-1.5 2.2-1 .4-2.5.7-4.3.7-.9 0-1.7-.1-2.5-.1-.7-.1-1.3-.3-1.8-.5s-.9-.5-1.1-.9c-.3-.4-.4-.8-.4-1.3 0-.2.1-.3.1-.4s.2-.1.4-.2.3-.1.5-.1.3-.1.5-.2l.4-.4c.1-.2.1-.5.1-.9V70c0-.4-.1-.6-.1-.8-.1-.2-.2-.4-.4-.4-.1-.1-.3-.2-.5-.2s-.3-.1-.5-.1c-.1-.1-.3-.1-.4-.2-.1-.1-.1-.2-.1-.4 0-.5.1-.9.4-1.3.3-.4.6-.7 1.1-.9.5-.2 1.1-.4 1.8-.5s1.5-.1 2.4-.1c.4 0 .8 0 1.1.1.3 0 .6.1.9.1.3.1.5.1.7.2.2.1.4.2.5.3.3.2.5.4.6.7.4-.3 1-.6 1.6-.9.5-.2 1.2-.4 1.9-.6.8-.2 1.6-.3 2.6-.3 1.1 0 2 .1 2.8.4.5 0 1.2.4 1.7.9zm25.2 13.2c.3 0 .5-.1.7-.1.2-.1.3-.2.4-.4.1-.2.1-.4.2-.6 0-.3.1-.6.1-.9V73.3h-.7c-.4 0-.8.1-1.1.3-.3.2-.6.4-.7.8-.2.3-.3.7-.4 1.1-.1.4-.1.9-.1 1.4 0 .3 0 .6.1.9 0 .3.1.5.2.7.1.2.3.4.5.5.1.2.4.2.8.2zm6.4 2.8c-.4 0-.9 0-1.4-.1-.4-.1-.9-.1-1.3-.3s-.8-.4-1.1-.6c-.3-.3-.6-.7-.9-1.1-.2.4-.5.8-.9 1.1-.4.3-.9.6-1.4.8-.5.2-1 .4-1.6.4-.6.1-1.1.1-1.6.1-.9 0-1.7-.1-2.3-.3s-1.2-.5-1.7-.9-.8-.9-1-1.4c-.2-.6-.4-1.2-.4-1.8 0-.8.1-1.6.4-2.3.3-.7.7-1.4 1.4-1.9.6-.5 1.5-1 2.6-1.3 1.1-.3 2.5-.5 4.1-.5h1.8c0-1 0-1.8-.1-2.5-.1-.6-.2-1.2-.3-1.6s-.3-.6-.5-.8-.5-.2-.8-.2c-.3 0-.6.1-.9.3-.2.2-.4.5-.6.9-.1.4-.2.9-.3 1.4-.1.5-.1 1.2-.1 1.8h-1.2c-.4 0-.8-.1-1.3-.1-.4-.1-.8-.1-1.2-.2-.4-.1-.7-.3-1-.4-.3-.2-.5-.4-.7-.7-.2-.3-.3-.6-.3-1.1 0-.6.1-1.1.4-1.7.3-.5.8-1 1.4-1.4.6-.4 1.4-.7 2.4-.9 1-.2 2.1-.4 3.5-.4 1.6 0 2.9.1 4.1.5 1.1.3 2.1.8 2.8 1.4.7.6 1.3 1.4 1.6 2.4.4 1 .5 2.1.5 3.4v4.7c0 .4.1.7.1.9.1.2.2.4.4.5.1.1.3.2.5.2.2.1.4.1.5.1.1.1.3.1.4.2.1.1.1.2.1.4 0 .9-.4 1.6-1.2 2.1-.2.6-1.4.9-2.9.9zm15.7-5.1c0 .4.1.6.1.9.1.2.2.4.4.5.1.1.3.2.5.2s.3.1.5.1c.1.1.3.1.4.2.1.1.1.2.1.4 0 1-.5 1.7-1.6 2.2-1.1.4-2.6.7-4.6.7-1 0-1.8-.1-2.6-.1-.7-.1-1.4-.3-1.9-.5s-.9-.5-1.1-.9c-.3-.4-.4-.8-.4-1.3 0-.2.1-.3.1-.4.1-.1.2-.1.4-.2.1-.1.3-.1.5-.1s.3-.1.5-.2l.4-.4c.1-.2.1-.5.1-.9V70c0-.4-.1-.6-.1-.8-.1-.2-.2-.4-.4-.4-.1-.1-.3-.2-.5-.2s-.3-.1-.5-.1c-.1-.1-.3-.1-.4-.2-.1-.1-.1-.2-.1-.4 0-.5.1-.9.4-1.3.3-.4.6-.7 1.1-.9.5-.2 1.1-.4 1.9-.5.7-.1 1.6-.1 2.6-.1.9 0 1.6.1 2.1.2s.9.3 1.2.5c.3.2.6.4.7.7.5-.3 1-.6 1.6-.9.6-.2 1.2-.4 2-.6.8-.2 1.7-.3 2.8-.3 1 0 1.8.1 2.5.4.7.2 1.3.6 1.8 1s.9.9 1.2 1.4c.3.5.5 1.1.7 1.7.2.6.3 1.2.3 1.8.1.6.1 1.2.1 1.7v4.4c0 .4.1.7.1.9.1.2.2.4.4.5.1.1.3.2.5.2s.4.1.5.1c.1.1.3.1.4.2.1.1.1.2.1.4 0 1-.5 1.7-1.6 2.2-1 .4-2.6.7-4.5.7-1 0-1.8-.1-2.6-.1-.7-.1-1.4-.3-1.9-.5s-.9-.5-1.1-.9c-.3-.4-.4-.8-.4-1.3 0-.2.1-.3.1-.4.1-.1.2-.1.4-.2.1-.1.3-.1.5-.1.1 0 .3-.1.5-.2l.4-.4c.1-.2.1-.5.1-.9v-5.7c0-.6-.1-1-.1-1.5s-.2-.8-.4-1.1-.5-.5-.8-.7c-.3-.1-.7-.2-1.2-.2-.3 0-.6.1-.9.1-.3.1-.5.2-.7.4-.2.2-.4.4-.5.6-.1.2-.2.5-.2.8l.1 6.9z" class="st0"/>
</svg>
