<svg width="2619" height="873" viewBox="0 0 2619 873" fill="none" xmlns="http://www.w3.org/2000/svg">
<g clip-path="url(#clip0_1_2)">
<rect width="2618.44" height="872.814" transform="translate(0.141602)" fill="#F37925"/>
<g filter="url(#filter0_f_1_2)">
<path d="M2718.38 296.774C2922.13 504.107 3126.98 633.192 2919.65 836.944C2712.31 1040.7 2379.06 1037.79 2175.31 830.46C1971.56 623.127 1974.46 289.876 2181.79 86.1234C2389.13 -117.629 2514.62 89.4403 2718.38 296.774Z" fill="#A285D0"/>
</g>
<g filter="url(#filter1_f_1_2)">
<circle cx="977.991" cy="184.644" r="571.774" transform="rotate(40.2753 977.991 184.644)" fill="#118A8A"/>
</g>
<g filter="url(#filter2_f_1_2)">
<path d="M431.01 998.832C334.038 1220.95 297.932 1419.56 75.8183 1322.59C-146.296 1225.62 -247.743 966.947 -150.77 744.833C-53.7975 522.719 204.873 421.272 426.987 518.245C649.101 615.217 527.983 776.718 431.01 998.832Z" fill="#B75D72"/>
</g>
<g filter="url(#filter3_f_1_2)">
<path d="M1714.86 230.563C1475.09 265.909 1287.48 340.448 1252.14 100.679C1216.79 -139.09 1382.51 -362.114 1622.28 -397.46C1862.05 -432.806 2085.07 -267.089 2120.42 -27.3204C2155.76 212.448 1954.63 195.217 1714.86 230.563Z" fill="#43B19D"/>
</g>
<g filter="url(#filter4_f_1_2)">
<path d="M2994.38 899.94C2856.96 1214.69 2805.8 1496.14 2491.05 1358.73C2176.3 1221.31 2032.54 854.756 2169.96 540.005C2307.37 225.254 2673.93 81.4964 2988.68 218.913C3303.43 356.331 3131.8 585.189 2994.38 899.94Z" fill="#B75D72"/>
</g>
<g filter="url(#filter5_f_1_2)">
<path d="M303.693 -6.27594C519.295 104.423 715.259 152.902 604.56 368.504C493.861 584.105 229.343 669.146 13.7408 558.447C-201.861 447.748 -286.902 183.229 -176.203 -32.3723C-65.5039 -247.974 88.0912 -116.975 303.693 -6.27594Z" fill="#F37925"/>
</g>
<g filter="url(#filter6_f_1_2)">
<path d="M1554.91 239.159C1770.51 349.857 1966.47 398.336 1855.77 613.938C1745.07 829.54 1480.56 914.58 1264.95 803.882C1049.35 693.183 964.312 428.664 1075.01 213.062C1185.71 -2.53954 1339.3 128.46 1554.91 239.159Z" fill="#F37925"/>
</g>
<g filter="url(#filter7_f_1_2)">
<path d="M1038.21 562.659C1241.96 769.992 1446.81 899.077 1239.48 1102.83C1032.15 1306.58 698.895 1303.68 495.142 1096.35C291.39 889.012 294.293 555.761 501.626 352.008C708.96 148.256 834.456 355.325 1038.21 562.659Z" fill="#A285D0"/>
</g>
<g style="mix-blend-mode:soft-light" opacity="0.5">
<rect x="-1073.9" y="-1510.45" width="3492.87" height="3492.87" fill="url(#paint0_radial_1_2)"/>
</g>
</g>
<defs>
<filter id="filter0_f_1_2" x="1701.11" y="-320.769" width="1628.29" height="1631.91" filterUnits="userSpaceOnUse" color-interpolation-filters="sRGB">
<feFlood flood-opacity="0" result="BackgroundImageFix"/>
<feBlend mode="normal" in="SourceGraphic" in2="BackgroundImageFix" result="shape"/>
<feGaussianBlur stdDeviation="161.632" result="effect1_foregroundBlur_1_2"/>
</filter>
<filter id="filter1_f_1_2" x="82.9406" y="-710.407" width="1790.1" height="1790.1" filterUnits="userSpaceOnUse" color-interpolation-filters="sRGB">
<feFlood flood-opacity="0" result="BackgroundImageFix"/>
<feBlend mode="normal" in="SourceGraphic" in2="BackgroundImageFix" result="shape"/>
<feGaussianBlur stdDeviation="161.632" result="effect1_foregroundBlur_1_2"/>
</filter>
<filter id="filter2_f_1_2" x="-429.988" y="239.027" width="1224.87" height="1351.23" filterUnits="userSpaceOnUse" color-interpolation-filters="sRGB">
<feFlood flood-opacity="0" result="BackgroundImageFix"/>
<feBlend mode="normal" in="SourceGraphic" in2="BackgroundImageFix" result="shape"/>
<feGaussianBlur stdDeviation="121.224" result="effect1_foregroundBlur_1_2"/>
</filter>
<filter id="filter3_f_1_2" x="843.308" y="-806.291" width="1685.24" height="1480.25" filterUnits="userSpaceOnUse" color-interpolation-filters="sRGB">
<feFlood flood-opacity="0" result="BackgroundImageFix"/>
<feBlend mode="normal" in="SourceGraphic" in2="BackgroundImageFix" result="shape"/>
<feGaussianBlur stdDeviation="202.04" result="effect1_foregroundBlur_1_2"/>
</filter>
<filter id="filter4_f_1_2" x="1875.4" y="-75.6399" width="1533.5" height="1712.56" filterUnits="userSpaceOnUse" color-interpolation-filters="sRGB">
<feFlood flood-opacity="0" result="BackgroundImageFix"/>
<feBlend mode="normal" in="SourceGraphic" in2="BackgroundImageFix" result="shape"/>
<feGaussianBlur stdDeviation="121.224" result="effect1_foregroundBlur_1_2"/>
</filter>
<filter id="filter5_f_1_2" x="-628.826" y="-552.321" width="1669.38" height="1563.39" filterUnits="userSpaceOnUse" color-interpolation-filters="sRGB">
<feFlood flood-opacity="0" result="BackgroundImageFix"/>
<feBlend mode="normal" in="SourceGraphic" in2="BackgroundImageFix" result="shape"/>
<feGaussianBlur stdDeviation="202.04" result="effect1_foregroundBlur_1_2"/>
</filter>
<filter id="filter6_f_1_2" x="622.388" y="-306.887" width="1669.38" height="1563.39" filterUnits="userSpaceOnUse" color-interpolation-filters="sRGB">
<feFlood flood-opacity="0" result="BackgroundImageFix"/>
<feBlend mode="normal" in="SourceGraphic" in2="BackgroundImageFix" result="shape"/>
<feGaussianBlur stdDeviation="202.04" result="effect1_foregroundBlur_1_2"/>
</filter>
<filter id="filter7_f_1_2" x="20.9426" y="-54.8835" width="1628.29" height="1631.91" filterUnits="userSpaceOnUse" color-interpolation-filters="sRGB">
<feFlood flood-opacity="0" result="BackgroundImageFix"/>
<feBlend mode="normal" in="SourceGraphic" in2="BackgroundImageFix" result="shape"/>
<feGaussianBlur stdDeviation="161.632" result="effect1_foregroundBlur_1_2"/>
</filter>
<radialGradient id="paint0_radial_1_2" cx="0" cy="0" r="1" gradientUnits="userSpaceOnUse" gradientTransform="translate(672.531 235.983) rotate(90) scale(929.249)">
<stop stop-color="white"/>
<stop offset="0.0666667" stop-color="white" stop-opacity="0.991958"/>
<stop offset="0.133333" stop-color="white" stop-opacity="0.966976"/>
<stop offset="0.2" stop-color="white" stop-opacity="0.924056"/>
<stop offset="0.266667" stop-color="white" stop-opacity="0.862907"/>
<stop offset="0.333333" stop-color="white" stop-opacity="0.784449"/>
<stop offset="0.4" stop-color="white" stop-opacity="0.691348"/>
<stop offset="0.466667" stop-color="white" stop-opacity="0.588297"/>
<stop offset="0.533333" stop-color="white" stop-opacity="0.481703"/>
<stop offset="0.6" stop-color="white" stop-opacity="0.378652"/>
<stop offset="0.666667" stop-color="white" stop-opacity="0.285551"/>
<stop offset="0.733333" stop-color="white" stop-opacity="0.207093"/>
<stop offset="0.8" stop-color="white" stop-opacity="0.145944"/>
<stop offset="0.866667" stop-color="white" stop-opacity="0.103024"/>
<stop offset="0.933333" stop-color="white" stop-opacity="0.0780419"/>
<stop offset="1" stop-color="white" stop-opacity="0.07"/>
</radialGradient>
<clipPath id="clip0_1_2">
<rect width="2618.44" height="872.814" fill="white" transform="translate(0.141602)"/>
</clipPath>
</defs>
</svg>
