<svg width="225" height="225" viewBox="0 0 225 225" fill="none" xmlns="http://www.w3.org/2000/svg">
<path d="M101.293 162.447H32.9266L73.9839 130.862C87.7283 119.247 101.114 105.45 101.114 86.2118C101.114 62.6137 79.4084 49 57.886 49C34.5554 49 17.7365 62.7937 13.2124 85.4845L27.6815 89.8412C28.4062 74.0454 41.4294 61.5227 57.3443 61.5227C71.451 61.5227 85.5577 70.7798 85.5577 86.2082C85.5577 102.184 74.7086 112.892 63.4935 122.876L13.2124 162.447V175.333H101.293V162.447ZM204.315 50.8147H130.886L126.725 117.792L139.023 120.334C145.356 109.99 156.025 103.455 168.324 103.455C185.505 103.455 197.445 116.161 197.445 133.041C197.445 152.826 184.422 164.805 165.07 164.805C150.418 164.805 139.569 156.819 134.682 143.205L121.3 147.742C126.725 166.44 146.077 177.148 164.707 177.148C190.75 177.148 212.456 160.632 212.456 133.221C212.456 108.903 193.463 90.9285 169.228 90.9285C157.292 90.9285 147.705 96.1925 139.386 104.362L142.098 64.2484H203.049L204.315 50.8147Z" fill="white"/>
</svg>
