<svg xmlns="http://www.w3.org/2000/svg" width="196" height="40" fill="none"><g clip-path="url(#a)"><path fill="#fff" d="M12.42 24.509h3.722l5.642 14.795h13.198l-6.994-16.885c4.568-2.09 6.825-5.139 6.825-10.221 0-3.783-1.523-7.229-4.737-9.262C27.198 1.017 23.474.565 20.09.565H.405v38.739h12.016l-.001-14.795Zm0-15.7h4.794c1.128 0 2.369 0 3.385.509 1.185.621 1.86 1.863 1.86 3.162 0 3.331-3.101 3.727-5.696 3.727H12.42V8.809ZM51.04.565H39.082v38.739H51.04V.564Zm3.572 27.501c2.086 8.415 9.306 11.803 17.428 11.803 8.01 0 17.26-3.727 17.26-13.045 0-4.235-1.975-7.85-5.753-9.882-3.384-1.751-7.276-2.373-10.943-3.107-1.467-.338-4.286-.733-4.286-2.766 0-2.034 2.255-2.485 3.835-2.485 2.99 0 5.132 1.017 6.261 3.897l9.814-2.994C85.86 2.767 79.373 0 72.661 0c-3.835 0-7.954.734-11.113 2.937-3.101 2.202-4.963 5.93-4.963 9.712 0 9.206 8.63 11.182 15.906 12.594 1.749.339 4.739.79 4.739 3.163 0 2.145-3.046 2.371-4.569 2.371-3.441 0-6.036-1.242-7.05-4.687l-11 1.976Zm68.541 1.977h-17.43v-6.268h14.101v-8.64h-14.101v-5.65h17.43V.566h-29.05v38.739h29.05v-9.26Zm36.641 5.252h-21.322l12.805-9.826c4.286-3.614 8.461-7.907 8.461-13.892 0-7.342-6.77-11.577-13.482-11.577-7.276 0-12.521 4.291-13.932 11.35l4.512 1.356c.226-4.914 4.288-8.81 9.251-8.81 4.4 0 8.799 2.88 8.799 7.68 0 4.97-3.383 8.302-6.881 11.408l-15.681 12.31v4.01h27.47v-4.01ZM191.923.565h-22.9l-1.298 20.837 3.835.791c1.975-3.218 5.303-5.251 9.138-5.251 5.358 0 9.082 3.953 9.082 9.204 0 6.156-4.061 9.883-10.097 9.883-4.569 0-7.953-2.485-9.477-6.72l-4.173 1.411c1.692 5.817 7.727 9.149 13.537 9.149 8.122 0 14.891-5.139 14.891-13.667 0-7.565-5.923-13.157-13.481-13.157-3.722 0-6.712 1.637-9.307 4.179l.846-12.48h19.009l.395-4.18Z"/></g><defs><clipPath id="a"><path fill="#fff" d="M.4 0h195.2v40H.4z"/></clipPath></defs></svg>