<svg xmlns="http://www.w3.org/2000/svg" viewBox="0 0 162 34.656" width="162" height="34.656"><g fill="#fff"><path d="M161.942 30.21c-.35.099-.652.15-.95.15-1.054 0-1.555-.449-1.555-1.746v-9.782c0-5.144-4.114-7.638-8.976-7.638-3.712 0-5.716.45-9.68 2.048l-.881 5.178 5.167.549.731-2.532c1.054-.55 2.107-.649 3.459-.649 3.66 0 3.712 2.745 3.712 5.04v.749c-1.153-.151-2.456-.2-3.712-.2-5.164 0-10.53 1.298-10.53 6.839 0 4.694 3.712 6.44 6.971 6.44 3.661 0 5.967-2.196 7.275-4.491.301 2.745 1.955 4.491 4.964 4.491 1.404 0 2.858-.398 4.063-1.05l-.051-3.393-.007-.003zm-13.893-.151c-1.956 0-2.66-1.15-2.66-2.598 0-2.446 2.008-3.095 4.314-3.095 1.053 0 2.206.151 3.26.299-.151 3.743-2.608 5.39-4.914 5.39zM139.264 0l-9.75 34.246h-6.351L132.914 0zm-13.1 0-9.752 34.246h-6.35L119.813 0h6.35zM99.084 11.736h6.75v8.065h-6.75v-8.065zm0 14.384h6.75v8.065h-6.75V26.12zM89.218 25.962l5.116.497-1.407 7.889H73.17l-.652-3.397 12.435-14.226h-7.069l-1.005 3.496-4.663-.5.803-7.889h19.86l.5 3.397-12.537 14.226h7.322l1.054-3.493zM56.894 10.777c-8.135 0-12.152 5.45-12.152 12.046 0 7.198 4.82 11.444 11.802 11.444S69 29.718 69 22.52c0-6.297-3.968-11.746-12.105-11.746v.003zm-.15 18.543c-3.515 0-5.323-3-5.323-6.9 0-4.25 2.058-6.695 5.374-6.695 3.065 0 5.524 2.047 5.524 6.596 0 4.298-2.209 6.999-5.572 6.999h-.004zM38.868 29.321h3.01v4.893h-9.48V21.536c0-3.895-1.305-5.39-3.861-5.39-3.109 0-4.364 2.195-4.364 5.342v7.836h3.009v4.893h-9.477V21.54c0-3.894-1.304-5.39-3.864-5.39-3.108 0-4.364 2.196-4.364 5.342v7.837h4.313v4.893H0v-4.893h3.01v-12.73H0v-4.893h9.48V15.1c1.356-2.395 3.713-3.843 6.87-3.843s6.268 1.547 7.373 4.841c1.252-2.995 3.812-4.841 7.374-4.841 4.062 0 7.775 2.446 7.775 7.785v10.283l-.004-.003z"/></g></svg>