<svg xmlns="http://www.w3.org/2000/svg" width="100" height="29" fill="none"><g fill="#fff" clip-path="url(#a)"><path d="M37.279 12.885c-1.829 0-2.968 1.38-2.968 3.768 0 2.195 1 3.884 2.938 3.884 1.859 0 3.078-1.521 3.078-3.94 0-2.561-1.36-3.712-3.048-3.712Zm49.01 6.384c0 .816.39 1.466 1.468 1.466 1.274 0 2.633-.928 2.718-3.038-.58-.086-1.219-.167-1.803-.167-1.274-.005-2.383.36-2.383 1.739Z"/><path d="M0 0v29h99.918V0H0Zm29.071 23.042h-5.24v-7.145c0-2.196-.72-3.037-2.134-3.037-1.718 0-2.413 1.237-2.413 3.012v4.411h1.664v2.759h-5.236v-7.145c0-2.196-.72-3.037-2.133-3.037-1.719 0-2.413 1.237-2.413 3.012v4.411h2.383v2.759H5.93v-2.759h1.664v-7.175H5.93v-2.759h5.236v1.912c.749-1.349 2.053-2.165 3.796-2.165 1.804 0 3.463.872 4.077 2.728.695-1.688 2.108-2.728 4.077-2.728 2.243 0 4.297 1.38 4.297 4.386v5.801h1.663v2.759h-.005Zm8.068.279c-3.852 0-6.514-2.389-6.514-6.44 0-3.712 2.218-6.78 6.71-6.78 4.49 0 6.679 3.063 6.679 6.607 0 4.052-2.883 6.613-6.875 6.613Zm20.159-.279H46.377l-.36-1.912 6.874-8.017h-3.906l-.555 1.968-2.578-.284.445-4.448h10.976l.28 1.912-6.935 8.022h4.047l.584-1.967 2.828.279-.78 4.447Zm7.134 0H60.69v-4.559h3.742v4.559Zm0-8.134H60.69V10.35h3.742v4.56Zm2.338 8.134 5.405-19.355h3.523l-5.406 19.355H66.77Zm7.264 0 5.4-19.355h3.522l-5.405 19.355h-3.517Zm19.184.279c-1.663 0-2.578-.984-2.743-2.53-.719 1.293-1.993 2.53-4.016 2.53-1.804 0-3.852-.984-3.852-3.631 0-3.124 2.967-3.854 5.82-3.854.694 0 1.414.03 2.053.112v-.421c0-1.293-.03-2.84-2.053-2.84-.75 0-1.329.056-1.913.365l-.405 1.43-2.853-.309.49-2.921c2.188-.903 3.297-1.15 5.35-1.15 2.688 0 4.962 1.404 4.962 4.304v5.512c0 .73.28.984.859.984.164 0 .334-.03.524-.086l.03 1.911a4.791 4.791 0 0 1-2.253.594Z"/></g><defs><clipPath id="a"><path fill="#fff" d="M0 0h100v29H0z"/></clipPath></defs></svg>