<svg width="122" height="25" viewBox="0 0 122 25" fill="none" xmlns="http://www.w3.org/2000/svg">
<g id="Logo_RISE25" clip-path="url(#clip0_432_11445)">
<path id="Vector" d="M7.51199 15.3179H9.83856L13.3644 24.565H21.6133L17.242 14.0121C20.0973 12.7057 21.5077 10.8 21.5077 7.62357C21.5077 5.25929 20.556 3.10571 18.5469 1.835C16.7483 0.635714 14.421 0.352857 12.3057 0.352857H0.00292969V24.565H7.51271L7.51199 15.3179ZM7.51199 5.50571H10.5085C11.2134 5.50571 11.9889 5.50571 12.6239 5.82357C13.3644 6.21214 13.7868 6.98786 13.7868 7.8C13.7868 9.88214 11.8483 10.1293 10.2267 10.1293H7.51199V5.50571ZM31.6494 0.352857H24.1761V24.565H31.6487L31.6494 0.352857ZM33.8818 17.5414C35.186 22.8007 39.6986 24.9179 44.7748 24.9179C49.7811 24.9179 55.5622 22.5886 55.5622 16.765C55.5622 14.1179 54.3279 11.8593 51.9664 10.5886C49.8517 9.49429 47.4188 9.10571 45.1272 8.64714C44.2104 8.43571 42.4482 8.18857 42.4482 6.91786C42.4482 5.64714 43.858 5.365 44.8454 5.365C46.7139 5.365 48.0531 6.00071 48.7587 7.80071L54.8922 5.92929C53.4118 1.72929 49.358 0 45.1629 0C42.7657 0 40.1916 0.458571 38.2175 1.83571C36.279 3.21214 35.1154 5.54143 35.1154 7.90571C35.1154 13.6593 40.5091 14.8943 45.0566 15.7771C46.1496 15.9886 48.0181 16.2707 48.0181 17.7536C48.0181 19.0943 46.1146 19.2357 45.1629 19.2357C43.0119 19.2357 41.3902 18.4593 40.7559 16.3064L33.8818 17.5414ZM76.7202 18.7771H65.8266V14.8593H74.6398V9.45929H65.8266V5.92857H76.7202V0.352857H58.5644V24.565H76.7202V18.7771ZM99.6206 22.0593H86.2947L94.2975 15.9179C96.9765 13.6593 99.5856 10.9764 99.5856 7.23571C99.5856 2.64714 95.3549 0 91.1598 0C86.6122 0 83.3339 2.68214 82.4521 7.09429L85.2724 7.94143C85.4136 4.87 87.9521 2.435 91.0542 2.435C93.8038 2.435 96.5534 4.235 96.5534 7.235C96.5534 10.3414 94.4388 12.4236 92.2528 14.365L82.4521 22.0593V24.565H99.6206V22.0593ZM119.701 0.352857H105.389L104.578 13.3764L106.975 13.8707C108.209 11.8593 110.289 10.5886 112.686 10.5886C116.035 10.5886 118.362 13.0593 118.362 16.3414C118.362 20.1886 115.824 22.5179 112.052 22.5179C109.196 22.5179 107.081 20.965 106.129 18.3179L103.52 19.2C104.578 22.8357 108.35 24.9179 111.981 24.9179C117.057 24.9179 121.288 21.7064 121.288 16.3764C121.288 11.6479 117.586 8.15286 112.862 8.15286C110.536 8.15286 108.667 9.17643 107.045 10.765L107.574 2.965H119.454L119.701 0.352857Z" fill="white"/>
</g>
<defs>
<clipPath id="clip0_432_11445">
<rect width="122" height="25" fill="white"/>
</clipPath>
</defs>
</svg>
