<svg xmlns="http://www.w3.org/2000/svg" xml:space="preserve" viewBox="0 0 280 80">
  <path fill="none" d="M0 0h279.8v80H0V0z"/>
  <path d="M267.2 57.4c-.5.2-1 .2-1.5.2-1.6 0-2.4-.7-2.4-2.7V39.7c0-8-6.4-11.9-13.9-11.9-5.8 0-8.8.7-15 3.2l-1.4 8.1 8 .9 1.1-3.9c1.6-.9 3.3-1 5.4-1 5.7 0 5.8 4.3 5.8 7.8V44c-1.8-.2-3.8-.3-5.8-.3-8 0-16.3 2-16.3 10.6 0 7.3 5.7 10 10.8 10 5.7 0 9.2-3.4 11.2-7 .5 4.3 3 7 7.7 7 2.2 0 4.4-.6 6.3-1.6v-5.3zm-21.5-.2c-3 0-4.1-1.8-4.1-4 0-3.8 3.1-4.8 6.7-4.8 1.6 0 3.4.2 5.1.5-.3 5.7-4.1 8.3-7.7 8.3zm-13.4-47-15.1 53.4h-9.9l15.1-53.4h9.9zm-20.3 0-15.1 53.4H187l15.1-53.4h9.9zm-42.1 18.4h10.5v12.6h-10.5V28.6zm0 22.4h10.5v12.6h-10.5V51zm-15.2-.5 7.9.8-2.2 12.3h-30.6l-1-5.3L148 36.2h-10.9l-1.6 5.4-7.2-.8 1.2-12.3h30.7l.8 5.3L141.7 56H153l1.7-5.5zm-50.2-22.6c-12.6 0-18.8 8.5-18.8 18.7 0 11.2 7.5 17.8 18.2 17.8 11.2 0 19.2-7.1 19.2-18.2.1-9.9-6-18.3-18.6-18.3zm-.2 28.8c-5.4 0-8.2-4.7-8.2-10.7 0-6.6 3.2-10.4 8.3-10.4 4.7 0 8.5 3.2 8.5 10.2 0 6.7-3.4 10.9-8.6 10.9zM76.7 56h4.7v7.6H66.7V43.9c0-6.1-2-8.4-6-8.4-4.8 0-6.8 3.4-6.8 8.3V56h4.7v7.6H44V43.9c0-6.1-2-8.4-6-8.4-4.8 0-6.8 3.4-6.8 8.3V56h6.7v7.6H16.6V56h4.7V36.2h-4.7v-7.6h14.7v5.3c2.1-3.7 5.8-6 10.6-6 5 0 9.7 2.4 11.4 7.5 1.9-4.7 5.9-7.5 11.4-7.5 6.3 0 12 3.8 12 12.1v16z"/>
</svg>
